<svg width="36" height="29" viewBox="0 0 36 29" fill="none" xmlns="http://www.w3.org/2000/svg">
<path d="M14.3454 14.82C14.697 15.174 15.2668 15.174 15.6184 14.82L16.2546 14.1794C16.6061 13.8254 16.6061 13.2516 16.2546 12.8976L14.2453 10.875L16.254 8.8518C16.6056 8.49779 16.6056 7.92402 16.254 7.57002L15.6178 6.92941C15.2662 6.57541 14.6964 6.57541 14.3449 6.92941L11.0632 10.2338C10.7117 10.5878 10.7117 11.1616 11.0632 11.5156L14.3454 14.82ZM19.746 14.18L20.3822 14.8206C20.7337 15.1746 21.3036 15.1746 21.6551 14.8206L24.9368 11.5162C25.2883 11.1622 25.2883 10.5884 24.9368 10.2344L21.6551 6.92998C21.3036 6.57598 20.7337 6.57598 20.3822 6.92998L19.746 7.57059C19.3944 7.92459 19.3944 8.49836 19.746 8.85236L21.7547 10.875L19.746 12.8982C19.3944 13.2522 19.3944 13.826 19.746 14.18ZM35.1 23.5625H21.4616C21.42 24.6846 20.6342 25.375 19.62 25.375H16.2C15.1487 25.375 14.3426 24.3855 14.3567 23.5625H0.9C0.405 23.5625 0 23.9703 0 24.4688V25.375C0 27.3687 1.62 29 3.6 29H32.4C34.38 29 36 27.3687 36 25.375V24.4688C36 23.9703 35.595 23.5625 35.1 23.5625ZM32.4 2.71875C32.4 1.22344 31.185 0 29.7 0H6.3C4.815 0 3.6 1.22344 3.6 2.71875V21.75H32.4V2.71875ZM28.8 18.125H7.2V3.625H28.8V18.125Z" fill="white"/>
</svg>
